<svg xmlns="http://www.w3.org/2000/svg" viewBox="268 -19 527 462" width="1600" height="1403"><title>Count4</title><rect x="268" y="-19" width="527" height="462" fill="white"/><text x="342" y="207" font-family="Arial,sans-serif" font-size="10" fill="#152f50">INPUT</text><text x="341" y="79" font-family="Arial,sans-serif" font-size="10" fill="#152f50">CLK</text><polyline points="340,156 340,181" fill="none" stroke="#286c83" stroke-width="1"/><polyline points="348,156 348,181" fill="none" stroke="#286c83" stroke-width="1"/><polyline points="344,185 344,232" fill="none" stroke="#286c83" stroke-width="1"/><polyline points="340,156 348,156" fill="none" stroke="#286c83" stroke-width="1"/><polyline points="348,181 344,185" fill="none" stroke="#286c83" stroke-width="1"/><polyline points="340,181 344,185" fill="none" stroke="#286c83" stroke-width="1"/><text x="335" y="210" font-family="Arial,sans-serif" font-size="10" fill="#152f50">VCC</text><text x="310" y="207" font-family="Arial,sans-serif" font-size="10" fill="#152f50">INPUT</text><text x="308" y="79" font-family="Arial,sans-serif" font-size="10" fill="#152f50">CLR</text><polyline points="308,156 308,181" fill="none" stroke="#286c83" stroke-width="1"/><polyline points="316,156 316,181" fill="none" stroke="#286c83" stroke-width="1"/><polyline points="312,185 312,232" fill="none" stroke="#286c83" stroke-width="1"/><polyline points="308,156 316,156" fill="none" stroke="#286c83" stroke-width="1"/><polyline points="316,181 312,185" fill="none" stroke="#286c83" stroke-width="1"/><polyline points="308,181 312,185" fill="none" stroke="#286c83" stroke-width="1"/><text x="303" y="210" font-family="Arial,sans-serif" font-size="10" fill="#152f50">VCC</text><text x="750" y="43" font-family="Arial,sans-serif" font-size="10" fill="#152f50">OUTPUT</text><text x="748" y="132" font-family="Arial,sans-serif" font-size="10" fill="#152f50">Q[1..0]</text><polyline points="752,32 752,84" fill="none" stroke="#286c83" stroke-width="1"/><polyline points="756,84 756,110" fill="none" stroke="#286c83" stroke-width="1"/><polyline points="748,84 748,110" fill="none" stroke="#286c83" stroke-width="1"/><polyline points="748,84 756,84" fill="none" stroke="#286c83" stroke-width="1"/><polyline points="756,110 752,114" fill="none" stroke="#286c83" stroke-width="1"/><polyline points="752,114 748,110" fill="none" stroke="#286c83" stroke-width="1"/><polyline points="748,110 752,114" fill="none" stroke="#286c83" stroke-width="1"/><text x="425" y="234" font-family="Arial,sans-serif" font-size="10" fill="#152f50">JKFF</text><text x="427" y="302" font-family="Arial,sans-serif" font-size="10" fill="#152f50">inst</text><text x="448" y="247" font-family="Arial,sans-serif" font-size="10" fill="#152f50">PRN</text><text x="448" y="245" font-family="Arial,sans-serif" font-size="10" fill="#152f50">PRN</text><polyline points="456,228 456,224" fill="none" stroke="#286c83" stroke-width="1"/><text x="445" y="293" font-family="Arial,sans-serif" font-size="10" fill="#152f50">CLRN</text><text x="445" y="292" font-family="Arial,sans-serif" font-size="10" fill="#152f50">CLRN</text><polyline points="456,304 456,300" fill="none" stroke="#286c83" stroke-width="1"/><text x="439" y="285" font-family="Arial,sans-serif" font-size="10" fill="#152f50">K</text><text x="439" y="285" font-family="Arial,sans-serif" font-size="10" fill="#152f50">K</text><polyline points="424,280 436,280" fill="none" stroke="#286c83" stroke-width="1"/><text x="439" y="254" font-family="Arial,sans-serif" font-size="10" fill="#152f50">J</text><text x="439" y="254" font-family="Arial,sans-serif" font-size="10" fill="#152f50">J</text><polyline points="424,248 436,248" fill="none" stroke="#286c83" stroke-width="1"/><text x="426" y="265" font-family="Arial,sans-serif" font-size="10" fill="#152f50">CLK</text><text x="426" y="265" font-family="Arial,sans-serif" font-size="10" fill="#152f50">CLK</text><polyline points="424,264 436,264" fill="none" stroke="#286c83" stroke-width="1"/><text x="469" y="254" font-family="Arial,sans-serif" font-size="10" fill="#152f50">Q</text><text x="469" y="254" font-family="Arial,sans-serif" font-size="10" fill="#152f50">Q</text><polyline points="476,248 488,248" fill="none" stroke="#286c83" stroke-width="1"/><polyline points="436,236 476,236" fill="none" stroke="#286c83" stroke-width="1"/><polyline points="436,292 476,292" fill="none" stroke="#286c83" stroke-width="1"/><polyline points="476,292 476,236" fill="none" stroke="#286c83" stroke-width="1"/><polyline points="436,292 436,236" fill="none" stroke="#286c83" stroke-width="1"/><polyline points="436,258 436,257" fill="none" stroke="#286c83" stroke-width="1"/><polyline points="443,264 436,271" fill="none" stroke="#286c83" stroke-width="1"/><polyline points="436,256 444,264" fill="none" stroke="#286c83" stroke-width="1"/><text x="617" y="234" font-family="Arial,sans-serif" font-size="10" fill="#152f50">JKFF</text><text x="619" y="302" font-family="Arial,sans-serif" font-size="10" fill="#152f50">inst4</text><text x="640" y="247" font-family="Arial,sans-serif" font-size="10" fill="#152f50">PRN</text><text x="640" y="245" font-family="Arial,sans-serif" font-size="10" fill="#152f50">PRN</text><polyline points="648,228 648,224" fill="none" stroke="#286c83" stroke-width="1"/><text x="637" y="293" font-family="Arial,sans-serif" font-size="10" fill="#152f50">CLRN</text><text x="637" y="292" font-family="Arial,sans-serif" font-size="10" fill="#152f50">CLRN</text><polyline points="648,304 648,300" fill="none" stroke="#286c83" stroke-width="1"/><text x="631" y="285" font-family="Arial,sans-serif" font-size="10" fill="#152f50">K</text><text x="631" y="285" font-family="Arial,sans-serif" font-size="10" fill="#152f50">K</text><polyline points="616,280 628,280" fill="none" stroke="#286c83" stroke-width="1"/><text x="631" y="254" font-family="Arial,sans-serif" font-size="10" fill="#152f50">J</text><text x="631" y="254" font-family="Arial,sans-serif" font-size="10" fill="#152f50">J</text><polyline points="616,248 628,248" fill="none" stroke="#286c83" stroke-width="1"/><text x="618" y="265" font-family="Arial,sans-serif" font-size="10" fill="#152f50">CLK</text><text x="618" y="265" font-family="Arial,sans-serif" font-size="10" fill="#152f50">CLK</text><polyline points="616,264 628,264" fill="none" stroke="#286c83" stroke-width="1"/><text x="661" y="254" font-family="Arial,sans-serif" font-size="10" fill="#152f50">Q</text><text x="661" y="254" font-family="Arial,sans-serif" font-size="10" fill="#152f50">Q</text><polyline points="668,248 680,248" fill="none" stroke="#286c83" stroke-width="1"/><polyline points="628,236 668,236" fill="none" stroke="#286c83" stroke-width="1"/><polyline points="628,292 668,292" fill="none" stroke="#286c83" stroke-width="1"/><polyline points="668,292 668,236" fill="none" stroke="#286c83" stroke-width="1"/><polyline points="628,292 628,236" fill="none" stroke="#286c83" stroke-width="1"/><polyline points="628,258 628,257" fill="none" stroke="#286c83" stroke-width="1"/><polyline points="635,264 628,271" fill="none" stroke="#286c83" stroke-width="1"/><polyline points="628,256 636,264" fill="none" stroke="#286c83" stroke-width="1"/><text x="566" y="139" font-family="Arial,sans-serif" font-size="10" fill="#152f50">AND2</text><text x="527" y="141" font-family="Arial,sans-serif" font-size="10" fill="#152f50">inst1</text><text x="530" y="145" font-family="Arial,sans-serif" font-size="10" fill="#152f50">IN1</text><text x="557" y="140" font-family="Arial,sans-serif" font-size="10" fill="#152f50">IN1</text><polyline points="560,128 560,142" fill="none" stroke="#286c83" stroke-width="1"/><text x="530" y="161" font-family="Arial,sans-serif" font-size="10" fill="#152f50">IN2</text><text x="541" y="140" font-family="Arial,sans-serif" font-size="10" fill="#152f50">IN2</text><polyline points="544,128 544,142" fill="none" stroke="#286c83" stroke-width="1"/><text x="576" y="153" font-family="Arial,sans-serif" font-size="10" fill="#152f50">OUT</text><text x="549" y="186" font-family="Arial,sans-serif" font-size="10" fill="#152f50">OUT</text><polyline points="552,170 552,192" fill="none" stroke="#286c83" stroke-width="1"/><polyline points="564,142 564,158" fill="none" stroke="#286c83" stroke-width="1"/><polyline points="539,142 539,159" fill="none" stroke="#286c83" stroke-width="1"/><polyline points="564,142 539,142" fill="none" stroke="#286c83" stroke-width="1"/><text x="528" y="377" font-family="Arial,sans-serif" font-size="10" fill="#152f50">AND2</text><text x="565" y="376" font-family="Arial,sans-serif" font-size="10" fill="#152f50">inst3</text><text x="530" y="345" font-family="Arial,sans-serif" font-size="10" fill="#152f50">IN1</text><text x="535" y="383" font-family="Arial,sans-serif" font-size="10" fill="#152f50">IN1</text><polyline points="544,392 544,378" fill="none" stroke="#286c83" stroke-width="1"/><text x="530" y="361" font-family="Arial,sans-serif" font-size="10" fill="#152f50">IN2</text><text x="551" y="383" font-family="Arial,sans-serif" font-size="10" fill="#152f50">IN2</text><polyline points="560,392 560,378" fill="none" stroke="#286c83" stroke-width="1"/><text x="576" y="353" font-family="Arial,sans-serif" font-size="10" fill="#152f50">OUT</text><text x="543" y="337" font-family="Arial,sans-serif" font-size="10" fill="#152f50">OUT</text><polyline points="552,350 552,328" fill="none" stroke="#286c83" stroke-width="1"/><polyline points="540,378 540,362" fill="none" stroke="#286c83" stroke-width="1"/><polyline points="565,378 565,361" fill="none" stroke="#286c83" stroke-width="1"/><polyline points="540,378 565,378" fill="none" stroke="#286c83" stroke-width="1"/><text x="635" y="96" font-family="Arial,sans-serif" font-size="10" fill="#152f50">NOT</text><text x="630" y="73" font-family="Arial,sans-serif" font-size="10" fill="#152f50">inst2</text><text x="610" y="81" font-family="Arial,sans-serif" font-size="10" fill="#152f50">IN</text><text x="643" y="87" font-family="Arial,sans-serif" font-size="10" fill="#152f50">IN</text><polyline points="656,80 643,80" fill="none" stroke="#286c83" stroke-width="1"/><text x="640" y="81" font-family="Arial,sans-serif" font-size="10" fill="#152f50">OUT</text><text x="607" y="87" font-family="Arial,sans-serif" font-size="10" fill="#152f50">OUT</text><polyline points="617,80 608,80" fill="none" stroke="#286c83" stroke-width="1"/><polyline points="643,71 643,89" fill="none" stroke="#286c83" stroke-width="1"/><polyline points="643,89 625,80" fill="none" stroke="#286c83" stroke-width="1"/><polyline points="643,71 625,80" fill="none" stroke="#286c83" stroke-width="1"/><text x="391" y="210" font-family="Arial,sans-serif" font-size="10" fill="#152f50">VCC</text><text x="387" y="215" font-family="Arial,sans-serif" font-size="10" fill="#152f50">inst6</text><text x="403" y="217" font-family="Arial,sans-serif" font-size="10" fill="#152f50">1</text><text x="403" y="217" font-family="Arial,sans-serif" font-size="10" fill="#152f50">1</text><polyline points="400,216 400,208" fill="none" stroke="#286c83" stroke-width="1"/><polyline points="392,208 408,208" fill="none" stroke="#286c83" stroke-width="1"/><polyline points="424,280 400,280" fill="none" stroke="#286c83" stroke-width="1"/><polyline points="424,248 400,248" fill="none" stroke="#286c83" stroke-width="1"/><polyline points="400,280 400,248" fill="none" stroke="#286c83" stroke-width="1"/><polyline points="400,248 400,216" fill="none" stroke="#286c83" stroke-width="1"/><polyline points="616,248 552,248" fill="none" stroke="#286c83" stroke-width="1"/><polyline points="552,248 552,192" fill="none" stroke="#286c83" stroke-width="1"/><polyline points="616,280 552,280" fill="none" stroke="#286c83" stroke-width="1"/><polyline points="552,280 552,328" fill="none" stroke="#286c83" stroke-width="1"/><polyline points="344,312 544,312" fill="none" stroke="#286c83" stroke-width="1"/><polyline points="616,264 544,264" fill="none" stroke="#286c83" stroke-width="1"/><polyline points="544,264 544,312" fill="none" stroke="#286c83" stroke-width="1"/><polyline points="424,264 344,264" fill="none" stroke="#286c83" stroke-width="1"/><polyline points="344,232 344,264" fill="none" stroke="#286c83" stroke-width="1"/><polyline points="344,264 344,312" fill="none" stroke="#286c83" stroke-width="1"/><polyline points="608,80 560,80" fill="none" stroke="#286c83" stroke-width="1"/><polyline points="560,80 560,128" fill="none" stroke="#286c83" stroke-width="1"/><polyline points="488,248 496,248" fill="none" stroke="#286c83" stroke-width="1"/><polyline points="544,128 544,80" fill="none" stroke="#286c83" stroke-width="1"/><polyline points="544,80 496,80" fill="none" stroke="#286c83" stroke-width="1"/><polyline points="544,392 544,400" fill="none" stroke="#286c83" stroke-width="1"/><polyline points="544,400 496,400" fill="none" stroke="#286c83" stroke-width="1"/><polyline points="496,80 496,248" fill="none" stroke="#286c83" stroke-width="1"/><polyline points="496,248 496,400" fill="none" stroke="#286c83" stroke-width="1"/><polyline points="312,232 312,408" fill="none" stroke="#286c83" stroke-width="1"/><polyline points="648,304 648,408" fill="none" stroke="#286c83" stroke-width="1"/><polyline points="456,304 456,408" fill="none" stroke="#286c83" stroke-width="1"/><polyline points="312,408 456,408" fill="none" stroke="#286c83" stroke-width="1"/><polyline points="456,408 648,408" fill="none" stroke="#286c83" stroke-width="1"/><polyline points="680,248 704,248" fill="none" stroke="#286c83" stroke-width="1"/><polyline points="656,80 704,80" fill="none" stroke="#286c83" stroke-width="1"/><polyline points="560,392 560,400" fill="none" stroke="#286c83" stroke-width="1"/><polyline points="560,400 704,400" fill="none" stroke="#286c83" stroke-width="1"/><polyline points="704,248 704,400" fill="none" stroke="#286c83" stroke-width="1"/><polyline points="752,32 752,16" fill="none" stroke="#286c83" stroke-width="1"/><polyline points="752,16 704,16" fill="none" stroke="#286c83" stroke-width="1"/><polyline points="704,16 496,16" fill="none" stroke="#286c83" stroke-width="1"/><polyline points="704,80 704,248" fill="none" stroke="#286c83" stroke-width="1"/><polyline points="496,80 496,16" fill="none" stroke="#286c83" stroke-width="1"/><text x="480" y="62" font-family="Arial,sans-serif" font-size="10" fill="#152f50">Q[0]</text><polyline points="704,16 704,80" fill="none" stroke="#286c83" stroke-width="1"/><text x="688" y="62" font-family="Arial,sans-serif" font-size="10" fill="#152f50">Q[1]</text></svg>